<?xml version="1.0" encoding="UTF-8"?>
<svg id="Capa_1" xmlns="http://www.w3.org/2000/svg" version="1.1" viewBox="0 0 100 100">
  <!-- Generator: Adobe Illustrator 30.2.1, SVG Export Plug-In . SVG Version: 2.1.1 Build 1)  -->
  <defs>
    <style>
      .st0 {
        fill: #fff;
        stroke-miterlimit: 10;
      }

      .st0, .st1 {
        stroke: #39b39d;
      }

      .st1 {
        fill: none;
        stroke-linecap: round;
        stroke-linejoin: round;
      }
    </style>
  </defs>
  <path class="st0" d="M20.01,86.8c-.24-17.87-4.53-24.91-7.73-27.64-.05-.05-.07-.12-.12-.18-5.01-5.83-7.98-13.46-7.76-21.82.46-16.31,13.48-29.97,29.76-31.12,18.05-1.28,33.2,12.38,34.36,29.86l.08.84s0,.05,0,.08c0,2.91,1.09,5.76,2.44,8.33,1.41,2.71,2.89,5.36,4.1,7.24,1.19,1.85-.14,4.27-2.33,4.27h-3.22c-.54,0-.98.44-.98.98l-.47,4.3c0,.52-.41.95-.93.98l-3.64,1.33c-1.09.06-1.28,1.6-.23,1.92l3.2,1.94c.41.13.69.51.69.94v3.67c0,3.66-2.73,6.62-6.38,6.62h-5.68c-.54,0-.98.44-.98.98-.02,2.01-.09,1.88-.41,6.53-.04.51-.47.91-.98.91h-31.8c-.54,0-.98-.44-.98-.98Z"/>
  <path class="st1" d="M80.47,56.72c3.36,8.41-.74,17.94-9.14,21.3"/>
  <path class="st1" d="M86.02,52.66c5.4,13.51-1.18,28.84-14.69,34.23"/>
  <path class="st1" d="M93.02,46.87c7.43,18.61-1.63,39.73-20.24,47.16"/>
  <path class="st1" d="M35.23,45.79s-.14-4.92-6.33-4.92-5.88,10.66-5.88,10.66c0,0,.14,2.32,1.37,4.33,1.23,2,2.78,2.96,3.39,4.17s2.53,3.35,3.94,3.35,3.92.1,3.92-3.89"/>
  <polyline class="st1" points="32.23 53.85 35.7 53.85 37.71 49.07 39.1 58.97 41.05 42.13 42.85 62.13 45.78 49.48 48.05 57.86 50.31 51.79 52.06 53.7 57.15 53.7"/>
</svg>