<?xml version="1.0" encoding="UTF-8"?>
<svg id="Capa_1" xmlns="http://www.w3.org/2000/svg" version="1.1" viewBox="0 0 100 100">
  <!-- Generator: Adobe Illustrator 30.2.1, SVG Export Plug-In . SVG Version: 2.1.1 Build 1)  -->
  <defs>
    <style>
      .st0 {
        fill: #fff;
        stroke: #39b39d;
        stroke-miterlimit: 10;
      }
    </style>
  </defs>
  <path class="st0" d="M71.96,68.28h2.05c.96,0,1.87-.41,2.51-1.14.64-.72.93-1.68.81-2.63l-3-23.71c-.4-3.4-3.26-5.97-6.67-5.97h-20.73c-3.41,0-6.27,2.57-6.66,5.93l-3.01,23.74c-.12.95.17,1.91.81,2.63.64.72,1.54,1.14,2.51,1.14h2.05"/>
  <circle class="st0" cx="57.29" cy="18.95" r="13.38"/>
  <path class="st0" d="M87.35,64.14h-20.3c0-.08.02-.15.02-.23v-7.02l17.07-10.32c2.48-1.5,3.65-4.65,2.4-7.26-1.43-3-5.09-4.04-7.86-2.37l-20.01,12.09c-1.66,1-2.67,2.8-2.67,4.73v7.48h-21.85c-3.31,0-5.99,2.68-5.99,5.99v1.85c0,3.48,2.82,6.31,6.31,6.31h53.16c3.36-.2,6.02-3.19,5.45-6.65-.44-2.72-3-4.6-5.75-4.6Z"/>
  <polyline class="st0" points="54.91 53.82 46.85 53.82 47.83 47.06"/>
  <rect class="st0" x="1.43" y="75.39" width="97.15" height="19.03"/>
  <path class="st0" d="M17,53.75c6.17,0,11.18,5.01,11.18,11.18s-5.01,9.81-11.18,9.81-11.18-3.64-11.18-9.81,5.01-11.18,11.18-11.18Z"/>
</svg>