<?xml version="1.0" encoding="UTF-8"?>
<svg id="Capa_1" xmlns="http://www.w3.org/2000/svg" version="1.1" viewBox="0 0 100 100">
  <!-- Generator: Adobe Illustrator 30.2.1, SVG Export Plug-In . SVG Version: 2.1.1 Build 1)  -->
  <defs>
    <style>
      .st0 {
        fill: #fff;
        stroke: #39b39d;
        stroke-miterlimit: 10;
      }
    </style>
  </defs>
  <path class="st0" d="M62,58.49h1.75c.82,0,1.59-.35,2.13-.97.54-.61.79-1.43.69-2.23l-2.55-20.15c-.34-2.89-2.77-5.07-5.67-5.07h-17.62c-2.9,0-5.33,2.18-5.66,5.04l-2.56,20.18c-.1.81.15,1.63.69,2.23.54.61,1.31.97,2.13.97h1.74l-4.43,13.31c-.29.86-.14,1.82.39,2.56.53.74,1.39,1.18,2.31,1.18h3.27l2.05,12.3c.46,2.75,2.82,4.75,5.61,4.75h6.55c2.79,0,5.15-2,5.6-4.75l2.06-12.3h3.27c.92,0,1.77-.44,2.3-1.18.54-.74.68-1.69.39-2.56l-4.44-13.31Z"/>
  <circle class="st0" cx="49.53" cy="16.57" r="11.37"/>
  <rect class="st0" x="1.91" y="49.16" width="96.19" height="45.64" rx="7.83" ry="7.83"/>
  <polygon class="st0" points="88.2 66.28 77.86 66.28 77.86 55.53 66.46 55.53 66.46 66.28 55.29 66.28 55.29 77.68 66.46 77.68 66.46 88.43 77.86 88.43 77.86 77.68 88.2 77.68 88.2 66.28"/>
  <line class="st0" x1="17.31" y1="69.87" x2="34.37" y2="69.87"/>
  <line class="st0" x1="9.64" y1="77.3" x2="42.04" y2="77.3"/>
</svg>