<?xml version="1.0" encoding="UTF-8"?>
<svg id="Capa_1" xmlns="http://www.w3.org/2000/svg" version="1.1" viewBox="0 0 100 100">
  <!-- Generator: Adobe Illustrator 30.2.1, SVG Export Plug-In . SVG Version: 2.1.1 Build 1)  -->
  <defs>
    <style>
      .st0 {
        fill: #fff;
      }

      .st0, .st1 {
        stroke: #39b39d;
        stroke-linecap: round;
        stroke-linejoin: round;
      }

      .st1 {
        fill: none;
      }
    </style>
  </defs>
  <rect class="st0" x="4.62" y="4.62" width="90.76" height="90.76"/>
  <g>
    <g>
      <circle class="st0" cx="28.83" cy="68.9" r="3.75"/>
      <path class="st0" d="M32.95,82.73h.58c.27,0,.53-.12.7-.32.18-.2.26-.47.23-.74l-.84-6.65c-.11-.95-.92-1.67-1.87-1.67h-5.81c-.96,0-1.76.72-1.87,1.66l-.84,6.66c-.03.27.05.54.23.74.18.2.43.32.7.32h8.8Z"/>
    </g>
    <g>
      <circle class="st0" cx="41.21" cy="68.9" r="3.75"/>
      <path class="st0" d="M45.33,82.73h.58c.27,0,.53-.12.7-.32.18-.2.26-.47.23-.74l-.84-6.65c-.11-.95-.92-1.67-1.87-1.67h-5.81c-.96,0-1.76.72-1.87,1.66l-.84,6.66c-.03.27.05.54.23.74.18.2.43.32.7.32h8.8Z"/>
    </g>
    <g>
      <circle class="st0" cx="53.59" cy="68.9" r="3.75"/>
      <path class="st0" d="M57.71,82.73h.58c.27,0,.53-.12.7-.32.18-.2.26-.47.23-.74l-.84-6.65c-.11-.95-.92-1.67-1.87-1.67h-5.81c-.96,0-1.76.72-1.87,1.66l-.84,6.66c-.03.27.05.54.23.74.18.2.43.32.7.32h8.8Z"/>
    </g>
    <g>
      <circle class="st0" cx="65.98" cy="68.9" r="3.75"/>
      <path class="st0" d="M70.09,82.73h.58c.27,0,.53-.12.7-.32.18-.2.26-.47.23-.74l-.84-6.65c-.11-.95-.92-1.67-1.87-1.67h-5.81c-.96,0-1.76.72-1.87,1.66l-.84,6.66c-.03.27.05.54.23.74.18.2.43.32.7.32h8.8Z"/>
    </g>
    <g>
      <circle class="st0" cx="78.36" cy="68.9" r="3.75"/>
      <path class="st0" d="M82.47,82.73h.58c.27,0,.53-.12.7-.32.18-.2.26-.47.23-.74l-.84-6.65c-.11-.95-.92-1.67-1.87-1.67h-5.81c-.96,0-1.76.72-1.87,1.66l-.84,6.66c-.03.27.05.54.23.74.18.2.43.32.7.32h8.8Z"/>
    </g>
    <rect class="st0" x="23.21" y="17.27" width="59.71" height="26.41"/>
    <g>
      <g>
        <line class="st1" x1="67.57" y1="23.97" x2="77.91" y2="23.97"/>
        <circle class="st1" cx="62.9" cy="23.97" r="1.15"/>
      </g>
      <g>
        <line class="st1" x1="67.57" y1="29.32" x2="77.91" y2="29.32"/>
        <circle class="st1" cx="62.9" cy="29.32" r="1.15"/>
      </g>
      <g>
        <line class="st1" x1="67.57" y1="34.67" x2="77.91" y2="34.67"/>
        <circle class="st1" cx="62.9" cy="34.67" r="1.15"/>
      </g>
    </g>
    <g>
      <path class="st1" d="M42.36,23.86c-4.04,0-7.31,3.27-7.31,7.31s3.27,7.31,7.31,7.31,7.13-3.1,7.3-6.98h-7.3v-7.64Z"/>
      <path class="st1" d="M43.77,22.46v7.64h7.3c0-.11,0-.22,0-.33,0-4.04-3.27-7.31-7.31-7.31Z"/>
    </g>
    <g>
      <circle class="st0" cx="23.21" cy="30.41" r="4.79"/>
      <path class="st0" d="M30.39,49.17l-1.09-10.9c-.12-1.23-1.15-2.16-2.38-2.16h-1.31c-.32,0-.62.13-.85.35l-1.55,1.55-1.55-1.55c-.23-.22-.53-.35-.85-.35h-1.31c-1.24,0-2.26.93-2.38,2.16l-1.09,10.9c-.03.34.08.67.3.93.23.25.55.39.89.39h1.31l.98,9.83c.12,1.23,1.15,2.16,2.39,2.16h2.62c1.24,0,2.26-.93,2.38-2.16l.98-9.83h1.31c.34,0,.66-.14.89-.39.23-.25.34-.59.3-.93Z"/>
    </g>
  </g>
</svg>