<?xml version="1.0" encoding="UTF-8"?>
<svg id="Capa_1" xmlns="http://www.w3.org/2000/svg" version="1.1" viewBox="0 0 100 100">
  <!-- Generator: Adobe Illustrator 30.2.1, SVG Export Plug-In . SVG Version: 2.1.1 Build 1)  -->
  <defs>
    <style>
      .st0 {
        fill: #fff;
      }

      .st0, .st1 {
        stroke: #39b39d;
        stroke-linecap: round;
        stroke-linejoin: round;
      }

      .st1 {
        fill: none;
      }
    </style>
  </defs>
  <path class="st1" d="M70.75,31.19v-6.71c0-1.14-.93-2.06-2.07-2.06s-2.07.93-2.07,2.06v5.37"/>
  <path class="st1" d="M66.62,56.52v21.82c0,1.14.93,2.06,2.07,2.06s2.07-.93,2.07-2.06v-24.61c-1.45,1.11-2.56,1.96-2.56,1.96l-1.58.82Z"/>
  <path class="st1" d="M66.62,41.74v6.44l.86-.22s1.52-.95,3.27-1.97v-3.94"/>
  <line class="st1" x1="70.75" y1="38.16" x2="70.75" y2="38.13"/>
  <polygon class="st0" points="40.84 70.01 33.91 62.06 27.04 54.17 24.95 51.77 13.17 62.03 22.13 72.32 31.09 82.61 42.87 72.35 40.84 70.01"/>
  <path class="st0" d="M75.84,43.52c-.22,0-.58.13-1.03.32-1.07.45-2.64,1.32-4.06,2.15-1.75,1.02-3.27,1.97-3.27,1.97l-.86.22-3.37.87v-20.29l-.97-.32-19.48,4.72-15.75,21,6.88,7.89,6.92,7.95,1.71-1.5,4.66-1.91,16.04-8.33,3.37-1.75,1.58-.82s1.11-.85,2.56-1.96c2.38-1.83,5.67-4.36,6.53-5.04.95-.74,1.4-1.54,1.54-2.29.3-1.61-.98-2.96-2.98-2.89Z"/>
  <path class="st0" d="M59.21,5.26v10.88h4.03v32.91l3.37-.87v-23.69c0-1.14.93-2.06,2.07-2.06s2.07.93,2.07,2.06v21.5c1.42-.83,2.99-1.69,4.06-2.15.45-.19.81-.31,1.03-.32,2-.08,3.29,1.28,2.98,2.89-.14.75-.6,1.55-1.54,2.29-.86.67-4.16,3.21-6.53,5.04v24.61c0,1.14-.93,2.06-2.07,2.06s-2.07-.93-2.07-2.06v-21.82l-3.37,1.75v26.79c0,5.34,4.33,9.67,9.67,9.67h.2c5.34,0,9.67-4.33,9.67-9.67V16.14h4.03V5.26h-27.61Z"/>
</svg>