<?xml version="1.0" encoding="UTF-8"?><svg id="Capa_1" xmlns="http://www.w3.org/2000/svg" viewBox="0 0 170 82"><defs><style>.cls-1{fill:#010101;}.cls-2{fill:#8b8b8b;}</style></defs><path class="cls-1" d="M75.7,79.9l-3.4-11.9h2.1l2.6,9.2,2.8-9.2h2.2l2.5,9.2,3-9.2h1.9l-3.9,11.9h-2.2l-2.5-9.2-2.9,9.2h-2.2Z"/><path class="cls-1" d="M100.5,79.5c-1.5.4-2.7.7-3.8.7-1.9,0-3.4-.6-4.4-1.9s-1.6-2.7-1.6-4.4.2-2.2.7-3.2,1.1-1.8,1.9-2.2c.8-.5,1.7-.7,2.7-.7s2.5.5,3.3,1.5,1.2,2.5,1.2,4.4v.7h-7.7c0,1.1.3,1.9.7,2.4.3.6.8,1,1.4,1.3s1.3.5,2.2.5.9,0,1.3,0,1.1-.3,2-.6v1.6h.1ZM92.9,72.7h5.4c0-1.2-.2-2-.7-2.6-.5-.5-1.1-.8-1.8-.8s-1.5.3-2,.8c-.5.6-.8,1.5-.9,2.6Z"/><path class="cls-1" d="M104.1,80v-17.4h2.2v7.6c.4-.8,1-1.5,1.7-1.9s1.4-.6,2.3-.6c1.5,0,2.6.5,3.4,1.6s1.2,2.5,1.2,4.2-.5,3.5-1.4,4.7c-.9,1.3-2.1,1.9-3.7,1.9s-.9,0-1.3-.2-.8-.3-1.1-.5c-.3-.2-.7-.5-1.1-1l-.3,1.6h-1.9ZM106.3,77.1c.7.7,1.3,1.1,1.8,1.2.4.2.9.3,1.4.3,1.1,0,1.8-.4,2.3-1.3s.8-2,.8-3.4-.2-2.3-.7-3.1c-.4-.8-1.1-1.1-2.1-1.1s-1.2.2-1.8.5c-.6.3-1.2.8-1.7,1.5v5.4h0Z"/><path class="cls-1" d="M117.8,79.5v-2.4c1.6.7,3,1,4.1,1s1.1,0,1.5-.4.5-.6.5-1,0-.6-.4-.9c-.3-.2-.7-.4-1.2-.7l-1.1-.4c-1.1-.5-2-1-2.5-1.5s-.8-1.2-.8-2.1.4-1.9,1.2-2.6c.8-.7,2.1-1,3.7-1s2.1,0,3.5.4v2.3c-1.3-.5-2.4-.7-3.2-.7s-1.2,0-1.5.3c-.3.2-.5.5-.5.9s0,.5.3.8c.2.2.6.4,1.2.6l.9.4c1.6.6,2.6,1.2,3.1,1.7.5.6.7,1.2.7,2s-.4,1.9-1.3,2.7c-.9.8-2.1,1.1-3.8,1.1-1.5.2-2.9,0-4.4-.5Z"/><path class="cls-1" d="M130.8,65.8v-2.7h3.2v2.7h-3.2ZM130.8,79.9v-12h3.2v12h-3.2Z"/><path class="cls-1" d="M144.3,79.8c-.8.2-1.4.3-1.8.3-1.1,0-1.9-.2-2.5-.5s-1-.7-1.3-1.2-.4-1.3-.4-2.3v-6.3h-1.3v-2h1.3v-2l3.2-.4v2.4h2.6v2h-2.6v5.9c0,.9.2,1.5.5,1.8s.8.5,1.3.5.6,0,1,0v1.9Z"/><path class="cls-1" d="M156.9,79.5c-1.5.5-3,.7-4.4.7s-2.4-.2-3.4-.7-1.7-1.2-2.3-2.3-.8-2.2-.8-3.4.2-2.2.7-3.1c.4-1,1.1-1.7,1.9-2.3.9-.6,1.9-.8,3.2-.8s2.8.5,3.7,1.5,1.4,2.8,1.4,5.5h-7.4c.1.8.3,1.5.5,1.9.3.5.7.8,1.2,1.1.5.3,1.2.4,2,.4s2.3-.3,3.7-.8v2.3h0ZM149.5,72.7h4.3c0-1.1-.2-1.9-.5-2.4-.4-.5-.8-.7-1.4-.7s-1.1.3-1.5.8c-.6.5-.8,1.3-.9,2.3Z"/><path class="cls-1" d="M160,79.5v-2.4c1.6.7,3,1,4.1,1s1.1,0,1.5-.4.5-.6.5-1-.1-.6-.4-.9c-.3-.2-.7-.4-1.2-.7l-1.1-.4c-1.1-.5-2-1-2.5-1.5s-.8-1.2-.8-2.1.4-1.9,1.2-2.6,2.1-1,3.7-1,2.1,0,3.5.4v2.3c-1.3-.5-2.4-.7-3.2-.7s-1.2,0-1.5.3c-.3.2-.5.5-.5.9s.1.5.3.8c.2.2.6.4,1.2.6l.9.4c1.6.6,2.6,1.2,3.1,1.7.5.6.7,1.2.7,2s-.4,1.9-1.3,2.7c-.9.8-2.1,1.1-3.8,1.1-1.4.2-2.9,0-4.4-.5Z"/><path class="cls-2" d="M42.4,1.9h12.2v4.7c2.3-2.4,4.3-4,6-4.8,1.8-.9,4-1.3,6.7-1.3,6,0,10.7,2.5,14.1,7.6,3.8-5,9-7.6,15.5-7.6,11.9,0,17.8,7,17.8,20.9v31.6h-12.2v-28.4c0-4.9-.6-8.4-1.8-10.4-1.3-2.1-3.3-3.1-6.2-3.1s-5.8,1.2-7.3,3.7c-1.5,2.4-2.3,6.4-2.3,11.8v26.4h-12.3v-28.2c0-9.1-2.7-13.6-8.1-13.6s-5.9,1.2-7.5,3.7c-1.6,2.5-2.4,6.4-2.4,11.8v26.3h-12.2V1.9Z"/><path class="cls-2" d="M54.7,51.8c0,2.4,0,4.5-.2,6.4-.2,1.8-.5,3.4-.7,4.8-.9,3.8-2.6,7.2-5.1,9.9-4.8,5.3-11.3,8-19.6,8s-12.8-1.8-17.4-5.5c-4.7-3.8-7.4-9-8.1-15.7h12.2c.5,2.5,1.2,4.5,2.3,5.8,2.5,3.2,6.2,4.8,11,4.8,8.9,0,13.4-5.3,13.4-15.9v-7.1c-4.8,4.8-10.4,7.2-16.7,7.2s-13.1-2.5-17.6-7.6c-4.6-5.1-6.9-11.5-6.9-19.1S3.4,14,7.7,8.8C12.3,3.3,18.4.5,26,.5s12.2,2.4,16.6,7.2V1.9h12.2v49.9h0ZM43,27.6c0-5-1.4-8.9-4.1-11.9-2.8-3-6.3-4.6-10.7-4.6s-8.3,1.7-10.9,5c-2.4,3-3.6,6.8-3.6,11.5s1.2,8.5,3.6,11.4c2.6,3.3,6.3,4.9,10.9,4.9s8.3-1.6,11-4.9c2.5-3,3.8-6.8,3.8-11.4Z"/><path class="cls-1" d="M42.4,1.9h12.2v4.6c2.2-2.3,4.2-3.8,6-4.7,1.8-.9,3.9-1.3,6.3-1.3s6.6,1,10.1,3l-5.6,10.8c-2.3-1.6-4.6-2.4-6.8-2.4-6.6,0-10,4.9-10,14.6v26.5h-12.2V1.9Z"/></svg>