<?xml version="1.0" encoding="UTF-8"?><svg id="Capa_1" xmlns="http://www.w3.org/2000/svg" viewBox="0 0 80 40"><defs><style>.cls-1{fill:#010101;}.cls-2{fill:#8b8b8b;}</style></defs><path class="cls-1" d="M35.7,37.1l-1.6-5.6h1l1.2,4.3,1.3-4.3h1l1.2,4.3,1.4-4.3h.8l-1.8,5.6h-1l-1.2-4.3-1.3,4.3h-1Z"/><path class="cls-1" d="M47.2,36.9c-.7.2-1.3.3-1.8.3-.9,0-1.6-.3-2.1-.9s-.8-1.3-.8-2.1,0-1,.3-1.5.5-.8.9-1,.8-.3,1.3-.3,1.2.2,1.6.7c.4.5.6,1.1.6,2.1v.3h-3.6c0,.5.2.9.3,1.1.2.3.4.5.6.6s.6.2,1,.2.4,0,.6,0c.2,0,.5,0,1-.3v.9h.1ZM43.7,33.7h2.5c0-.6,0-1-.3-1.2s-.5-.4-.9-.4-.7,0-.9.4c-.2.3-.3.7-.4,1.2Z"/><path class="cls-1" d="M48.9,37.2v-8.2h1v3.6c.2-.4.5-.7.8-.9s.7-.3,1.1-.3c.7,0,1.2.3,1.6.8.4.5.6,1.2.6,2s-.2,1.6-.6,2.2c-.4.6-1,.9-1.7.9s-.4,0-.6,0-.4,0-.5-.2-.3-.2-.5-.5v.7c0,0-1.2,0-1.2,0ZM50,35.8c.3.3.6.5.8.6s.4,0,.7,0c.5,0,.9-.2,1.1-.6.2-.4.4-.9.4-1.6s0-1.1-.3-1.4-.5-.5-1-.5-.6,0-.8.2-.5.4-.8.7v2.5h-.1Z"/><path class="cls-1" d="M55.3,36.9v-1.1c.8.3,1.4.5,1.9.5s.5,0,.7-.2c.2,0,.3-.3.3-.5s0-.3-.2-.4-.3-.2-.6-.3l-.5-.2c-.5-.2-.9-.4-1.2-.7s-.4-.6-.4-1,.2-.9.6-1.2c.4-.3,1-.5,1.7-.5s1,.1,1.6.2v1.1c-.6-.2-1.1-.3-1.5-.3s-.5,0-.7.2c-.2,0-.2.2-.2.4s0,.3.2.4.3.2.5.3l.4.2c.7.3,1.2.5,1.4.8s.3.6.3.9c0,.5-.2.9-.6,1.2-.4.4-1,.5-1.8.5-.5,0-1.2-.1-1.9-.3Z"/><path class="cls-1" d="M61.4,30.5v-1.3h1.5v1.3h-1.5ZM61.4,37.1v-5.6h1.5v5.6h-1.5Z"/><path class="cls-1" d="M67.7,37.1c-.4,0-.6.2-.9.2-.5,0-.9,0-1.2-.2-.3,0-.5-.3-.6-.6s-.2-.6-.2-1.1v-3h-.6v-.9h.6v-.9l1.5-.2v1.1h1.2v.9h-1.2v2.8c0,.4,0,.7.2.8s.4.2.6.2.3,0,.5,0v1h0Z"/><path class="cls-1" d="M73.6,36.9c-.7.2-1.4.3-2,.3s-1.1,0-1.6-.3-.8-.6-1.1-1.1-.4-1-.4-1.6,0-1,.3-1.5c.2-.4.5-.8.9-1.1.4-.3.9-.4,1.5-.4s1.3.2,1.7.7c.4.5.6,1.3.6,2.6h-3.5c0,.4,0,.7.3.9s.3.4.6.5c.2,0,.5.2.9.2s1.1,0,1.7-.4v1.2h0ZM70.1,33.7h2c0-.5,0-.9-.3-1.1-.2-.2-.4-.3-.7-.3s-.5,0-.7.4c0,.2-.2.6-.3,1Z"/><path class="cls-1" d="M75.1,36.9v-1.1c.8.3,1.4.5,1.9.5s.5,0,.7-.2c.2,0,.3-.3.3-.5s0-.3-.2-.4c0,0-.3-.2-.6-.3l-.5-.2c-.5-.2-.9-.4-1.2-.7-.3-.3-.4-.6-.4-1s.2-.9.6-1.2,1-.5,1.7-.5,1,.1,1.6.2v1.1c-.6-.2-1.1-.3-1.5-.3s-.5,0-.7.2c-.2,0-.2.2-.2.4s0,.3.2.4c0,0,.3.2.5.3l.4.2c.7.3,1.2.5,1.4.8.2.3.3.6.3.9,0,.5-.2.9-.6,1.2-.4.4-1,.5-1.8.5-.6,0-1.3-.1-1.9-.3Z"/><path class="cls-2" d="M20,1.3h5.7v2.2c1.1-1.1,2.1-1.9,2.8-2.3.8-.4,1.9-.6,3.1-.6,2.8,0,5,1.2,6.7,3.6,1.8-2.4,4.2-3.6,7.3-3.6,5.6,0,8.4,3.3,8.4,9.9v14.9h-5.8v-13.4c0-2.3-.3-3.9-.9-4.9-.6-1-1.6-1.5-2.9-1.5s-2.7.6-3.5,1.7c-.7,1.2-1.1,3-1.1,5.6v12.4h-5.8v-13.2c0-4.3-1.3-6.4-3.8-6.4s-2.8.6-3.5,1.8-1.1,3-1.1,5.5v12.4h-5.6V1.3Z"/><path class="cls-2" d="M25.8,24.8c0,1.1,0,2.1-.1,3s-.2,1.6-.3,2.3c-.4,1.8-1.2,3.4-2.4,4.7-2.2,2.5-5.3,3.8-9.3,3.8s-6-.9-8.2-2.6c-2.2-1.8-3.5-4.2-3.8-7.4h5.8c.2,1.2.6,2.1,1.1,2.7,1.2,1.5,2.9,2.3,5.2,2.3,4.2,0,6.3-2.5,6.3-7.5v-3.4c-2.3,2.3-4.9,3.4-7.9,3.4s-6.2-1.2-8.3-3.6c-2.2-2.4-3.3-5.4-3.3-9S1.6,7,3.6,4.5C5.8,1.9,8.7.6,12.2.6s5.7,1.1,7.8,3.4V1.3h5.7v23.5h0ZM20.3,13.4c0-2.3-.6-4.2-1.9-5.6s-3-2.2-5-2.2-3.9.8-5.2,2.4c-1.2,1.3-1.7,3.2-1.7,5.4s.6,4,1.7,5.4c1.2,1.5,3,2.3,5.2,2.3s3.9-.8,5.2-2.3c1.1-1.4,1.7-3.2,1.7-5.4Z"/><path class="cls-1" d="M20,1.3h5.7v2.2c1.1-1.1,2-1.8,2.8-2.2.8-.4,1.8-.6,3-.6s3.1.5,4.7,1.4l-2.6,5.1c-1-.8-2.1-1.2-3.1-1.2-3.1,0-4.7,2.3-4.7,6.9v12.5h-5.8V1.3Z"/></svg>